<svg width="1050" height="1017" viewBox="0 0 1050 1017" fill="none" xmlns="http://www.w3.org/2000/svg">
<circle opacity="0.05" cx="525" cy="525" r="371.5" stroke="white"/>
<circle opacity="0.1" cx="524.999" cy="525.001" r="313.673" stroke="white"/>
<circle opacity="0.1" cx="525" cy="525" r="244.519" stroke="white"/>
<circle opacity="0.1" cx="524.999" cy="524.999" r="171.788" stroke="white"/>
<circle opacity="0.1" cx="524.999" cy="524.999" r="109.788" stroke="white"/>
<path opacity="0.03" d="M285.28 240.538L514.973 509.333L367.072 188.186L519.369 507.272L459.627 158.788L524.149 506.418L556.636 154.347L528.987 506.831L651.491 175.164L533.553 508.482L737.723 219.824L537.537 511.259L809.461 285.279L540.665 514.972L861.811 367.072L542.727 519.368L891.211 459.626L543.58 524.148L895.652 556.636L543.168 528.986L874.834 651.489L541.516 533.552L830.176 737.723L538.74 537.536L764.72 809.46L535.027 540.665L682.927 861.812L530.631 542.726L590.373 891.21L525.851 543.58L493.363 895.651L521.012 543.166L398.509 874.833L516.446 541.516L312.275 830.175L512.463 538.738L240.539 764.719L509.334 535.026L188.187 682.927L507.273 530.63L158.789 590.372L506.419 525.85L154.348 493.362L506.832 521.011L175.166 398.508L508.483 516.445L219.824 312.275L511.26 512.462L285.28 240.538Z" fill="white"/>
</svg>
