<svg viewBox="0 0 20 20" fill="none" xmlns="http://www.w3.org/2000/svg"><path d="m5.83317 9.1665 3.33333-7.5c.66305 0 1.2989.2634 1.7678.73224.4688.46884.7322 1.10472.7322 1.76776v3.33334h4.7167c.2416-.00274.4809.04708.7013.14601.2204.09893.4167.2446.5752.42692.1586.18231.2756.39692.3429.62894.0674.23203.0835.47592.0472.71479l-1.15 7.5c-.0602.3974-.2621.7597-.5684 1.02-.3062.2603-.6963.4012-1.0982.3967H5.83317m0-9.1667v9.1667m0-9.1667h-2.5c-.44203 0-.86595.1756-1.17851.48816-.31256.31256-.48816.73644-.48816 1.17854v5.8333c0 .442.1756.866.48816 1.1785.31256.3126.73648.4882 1.17851.4882h2.5" stroke="#000" stroke-opacity=".3" stroke-width="2" stroke-linecap="round" stroke-linejoin="round"/></svg>