<svg viewBox="0 0 25 24" fill="none" xmlns="http://www.w3.org/2000/svg"><path d="M11.2625.922838c.2996-.92082026 1.6023-.92081955 1.9018.000001l2.1798 6.699631c.1339.41183.5178.69061.9509.69061h7.0509c.969 0 1.3716 1.24029.5872 1.80942l-5.702 4.1373c-.3509.2546-.4978.7064-.3636 1.1187l2.1785 6.696c.2997.9211-.7543 1.6876-1.5382 1.1188l-5.7071-4.141c-.3503-.2542-.8243-.2542-1.1746 0l-5.70704 4.141c-.78397.5688-1.83789-.1977-1.53822-1.1188l2.17851-6.696c.13415-.4123-.01271-.8641-.36366-1.1187L.49368 10.1225c-.784326-.56913-.381762-1.80942.58728-1.80942h7.05087c.43309 0 .81695-.27878.95094-.69061L11.2625.922838Z" fill="#E3D84A"/></svg>