<svg width="61" height="88" viewBox="0 0 61 88" fill="none" xmlns="http://www.w3.org/2000/svg">
<circle cx="31" cy="20" r="19.5" fill="#24270D" stroke="#24270D"/>
<mask id="path-2-inside-1_67_36" fill="white">
<path d="M3 76C1.34315 76 -0.0131378 74.6545 0.125999 73.0035C0.404633 69.6971 1.14334 66.4494 2.32167 63.3714C3.85444 59.3677 6.10106 55.7298 8.93324 52.6655C11.7654 49.6011 15.1277 47.1704 18.8282 45.512C22.5286 43.8536 26.4947 43 30.5 43C34.5053 43 38.4714 43.8536 42.1718 45.512C45.8723 47.1704 49.2346 49.6011 52.0668 52.6655C54.8989 55.7298 57.1456 59.3677 58.6783 63.3714C59.8567 66.4494 60.5954 69.6971 60.874 73.0035C61.0131 74.6545 59.6569 76 58 76L30.5 76H3Z"/>
</mask>
<path d="M3 76C1.34315 76 -0.0131378 74.6545 0.125999 73.0035C0.404633 69.6971 1.14334 66.4494 2.32167 63.3714C3.85444 59.3677 6.10106 55.7298 8.93324 52.6655C11.7654 49.6011 15.1277 47.1704 18.8282 45.512C22.5286 43.8536 26.4947 43 30.5 43C34.5053 43 38.4714 43.8536 42.1718 45.512C45.8723 47.1704 49.2346 49.6011 52.0668 52.6655C54.8989 55.7298 57.1456 59.3677 58.6783 63.3714C59.8567 66.4494 60.5954 69.6971 60.874 73.0035C61.0131 74.6545 59.6569 76 58 76L30.5 76H3Z" fill="#24270D" stroke="#24270D" stroke-width="10" mask="url(#path-2-inside-1_67_36)"/>
</svg>
